<?xml version="1.0" standalone="no"?>
<!DOCTYPE svg PUBLIC "-//W3C//DTD SVG 20010904//EN"
 "http://www.w3.org/TR/2001/REC-SVG-20010904/DTD/svg10.dtd">
<svg version="1.0" xmlns="http://www.w3.org/2000/svg"
 width="520.000000pt" height="520.000000pt" viewBox="0 0 520.000000 520.000000"
 preserveAspectRatio="xMidYMid meet">
<metadata>
Created by potrace 1.14, written by Peter Selinger 2001-2017
</metadata>
<g transform="translate(0.000000,520.000000) scale(0.100000,-0.100000)"
fill="#000000" stroke="none">
<path d="M1079 4492 c-8 -1 -68 -98 -134 -214 -66 -116 -134 -237 -152 -267
-17 -31 -46 -83 -64 -116 -17 -33 -40 -72 -50 -87 -11 -14 -19 -28 -19 -31 0
-2 -25 -49 -57 -103 -31 -55 -64 -115 -75 -134 -10 -19 -23 -42 -28 -50 -17
-26 -150 -262 -150 -266 0 -2 188 -4 418 -4 l417 0 64 153 c35 83 74 175 86
202 13 28 46 104 75 170 28 66 60 139 71 162 10 24 19 45 19 48 0 3 14 35 31
72 17 38 37 82 44 98 74 174 110 256 125 290 39 89 71 80 -288 80 -175 0 -325
-1 -333 -3z"/>
<path d="M2049 4490 c-4 -3 -18 -28 -30 -55 -12 -28 -34 -78 -50 -113 -16 -35
-29 -65 -29 -67 0 -3 -11 -28 -24 -57 -38 -81 -197 -452 -200 -463 -1 -5 -11
-30 -23 -55 -19 -40 -72 -160 -109 -247 -8 -18 -14 -35 -14 -38 -1 -2 -18 -43
-40 -90 l-39 -85 1099 0 c605 0 1100 2 1100 4 0 2 -12 30 -26 62 -29 65 -47
106 -49 114 -1 3 -8 21 -17 40 -8 19 -52 121 -98 225 -45 105 -91 210 -102
235 -11 24 -21 49 -22 55 -2 5 -14 35 -28 65 -15 30 -53 118 -86 195 -33 77
-67 156 -75 175 -9 19 -22 50 -29 68 -7 17 -20 33 -28 33 -56 4 -1074 3 -1081
-1z"/>
<path d="M3463 4463 c6 -18 14 -33 19 -33 4 0 8 -7 8 -15 0 -8 4 -23 9 -33 5
-9 30 -64 55 -122 25 -58 53 -123 62 -145 10 -22 18 -42 19 -45 2 -7 22 -52
56 -128 16 -35 29 -65 29 -68 0 -3 10 -26 21 -52 38 -84 56 -126 88 -202 17
-41 38 -88 45 -105 32 -70 56 -125 87 -200 18 -44 36 -84 39 -88 4 -4 88 -8
186 -8 98 0 286 0 416 1 l236 0 -74 131 c-41 72 -74 134 -74 139 0 5 -3 10 -7
12 -5 2 -16 19 -27 38 -20 39 -122 219 -341 605 -81 143 -159 280 -172 305
l-24 45 -333 0 -333 0 10 -32z"/>
<path d="M340 3022 c0 -3 130 -156 219 -257 14 -16 68 -79 120 -140 51 -60
105 -124 120 -140 40 -46 135 -157 159 -185 11 -14 31 -36 42 -50 12 -14 43
-49 68 -79 26 -30 54 -62 62 -71 8 -9 32 -37 53 -63 21 -25 43 -52 50 -59 7
-7 37 -42 67 -78 30 -36 57 -67 61 -70 3 -3 76 -88 163 -190 87 -102 170 -198
185 -215 14 -16 91 -106 171 -200 79 -93 153 -178 164 -187 34 -32 86 -17 86
23 0 10 -44 107 -97 216 -53 109 -98 200 -98 203 -1 3 -54 111 -117 240 -64
129 -179 366 -257 525 -78 160 -196 401 -263 536 l-120 245 -419 0 c-230 0
-419 -2 -419 -4z"/>
<path d="M1488 3011 c3 -8 16 -35 29 -60 12 -25 23 -49 23 -53 0 -4 13 -36 29
-70 15 -35 68 -155 116 -268 48 -113 96 -223 105 -245 10 -22 39 -89 65 -150
26 -60 55 -128 65 -150 10 -22 37 -85 60 -140 23 -55 50 -118 60 -140 48 -107
143 -327 145 -335 0 -3 11 -27 23 -54 12 -27 22 -50 22 -52 0 -2 11 -27 24
-56 13 -29 75 -170 136 -313 62 -143 123 -284 136 -313 13 -29 24 -57 24 -62
0 -12 45 -24 65 -17 14 6 24 26 85 167 18 41 45 103 61 138 16 35 29 65 29 68
0 5 103 247 145 339 12 28 75 174 140 325 64 151 125 293 135 315 10 22 32 74
50 115 17 41 42 99 56 128 13 29 24 55 24 57 0 3 9 24 19 48 20 43 204 469
286 662 25 60 47 114 48 120 1 7 -340 10 -1104 10 -968 1 -1106 -1 -1101 -14z"/>
<path d="M3880 2766 c-152 -309 -335 -684 -470 -961 -54 -110 -155 -317 -225
-460 -70 -143 -129 -267 -130 -277 -5 -23 21 -48 50 -48 22 0 51 28 140 135
22 26 45 53 50 59 6 6 105 121 220 256 116 135 222 258 236 275 56 64 115 133
144 167 17 19 51 59 76 89 26 30 89 104 141 164 51 61 105 124 119 140 15 17
71 82 125 145 54 63 101 117 104 120 3 3 28 32 55 65 28 33 57 67 65 76 8 8
26 29 39 45 14 16 50 58 80 94 31 35 67 78 81 94 14 16 30 34 35 40 40 44 61
42 -387 42 l-421 1 -127 -261z"/>
</g>
</svg>
